<?xml version="1.0" encoding="UTF-8"?>
<svg id="Capa_2" data-name="Capa 2" xmlns="http://www.w3.org/2000/svg" viewBox="0 0 280.16 62.08">
  <defs>
    <style>
      .cls-1 {
        fill: #fff;
        stroke-width: 0px;
      }
    </style>
  </defs>
  <g id="Capa_1-2" data-name="Capa 1">
    <g>
      <path class="cls-1" d="m53.83,46.5c-1.56,4.58-2.93,9.26-3.76,14.03-6.51,1.01-12.93,1.56-19.53,1.56C11.1,62.08,0,49.8,0,31.18S13.3.28,30.72.28c6.79,0,12.84.83,19.35,2.57.18,4.13,1.01,8.71,1.93,12.75h-2.75c-2.38-8.25-8.9-12.75-17.33-12.75-15.5,0-21.73,12.38-21.73,26.5s8.34,29.71,23.38,29.71c9.63,0,14.12-4.31,17.42-12.56h2.84Z"/>
      <path class="cls-1" d="m86.2,0c18.25,0,31.46,11.83,31.46,30.91,0,17.7-12.56,30.9-30.9,30.9s-29.71-12.93-29.71-30.9c0-15.96,12.47-30.91,29.16-30.91Zm21,35.49c0-14.86-4.95-32.92-21.83-32.92-11.56,0-18.25,10.64-18.25,22.56,0,14.31,4.95,33.66,21.37,33.66,11.92,0,18.71-11.1,18.71-23.29Z"/>
      <path class="cls-1" d="m228.44,1.28h4.58v59.52l-4.31,1.1s-27.05-39.62-28.98-42.28c-1.19-1.83-2.75-3.85-4.22-5.87v47.04h-4.68V7.89c-2.75-3.48-5.04-6.33-5.04-6.33l11.92-1.38s22.19,32.19,23.02,33.47c2.57,3.76,5.5,7.43,7.7,10.09V1.28Z"/>
      <path class="cls-1" d="m280.16,56.86l-.73,5.04s-13.94-1.1-19.81-1.1h-17.61V19.35c0-9.08-1.74-18.16-1.74-18.16h37.97l-1.01,5.32s-9.45-1.38-15.96-1.38h-10v23.2h21.18l-.82,3.94h-20.36v10.36c0,5.5.55,10.73,1.01,14.21h27.88Z"/>
      <path class="cls-1" d="m150.03,0c18.25,0,31.46,11.83,31.46,30.91,0,17.7-12.56,30.9-30.9,30.9s-29.71-12.93-29.71-30.9c0-15.96,12.47-30.91,29.16-30.91Zm21,35.49c0-14.86-4.95-32.92-21.83-32.92-11.56,0-18.25,10.64-18.25,22.56,0,14.31,4.95,33.66,21.37,33.66,11.92,0,18.71-11.1,18.71-23.29Z"/>
    </g>
  </g>
</svg>