<?xml version="1.0" encoding="UTF-8"?>
<svg id="Capa_2" data-name="Capa 2" xmlns="http://www.w3.org/2000/svg" viewBox="0 0 106.63 106.64">
  <defs>
    <style>
      .cls-1 {
        fill: #fff;
        stroke-width: 0px;
      }
    </style>
  </defs>
  <g id="Capa_1-2" data-name="Capa 1">
    <g>
      <g>
        <path class="cls-1" d="m53.32,14.44c-21.47,0-38.88,17.41-38.88,38.88s17.41,38.88,38.88,38.88,38.88-17.41,38.88-38.88S74.79,14.44,53.32,14.44Zm15.39,14.87c4.96,0,8.98,4.02,8.98,8.98,0,1.67-.46,3.24-1.25,4.58-.2.33-.42.66-.66.96-.25.32-.52.62-.82.91-1.62,1.57-3.82,2.54-6.26,2.54-1.53,0-2.97-.38-4.23-1.05.08-.56.13-1.12.13-1.7,0-.16,0-.32-.01-.48-.02-.39-.05-.78-.11-1.16-.05-.38-.13-.76-.22-1.13-.14-.55-.32-1.09-.55-1.62-.57-1.34-1.38-2.55-2.42-3.59-.36-.36-.75-.7-1.15-1,1.16-3.61,4.55-6.23,8.55-6.23Zm-20.69,7.96c.34-.25.7-.48,1.08-.68,1.26-.67,2.7-1.05,4.23-1.05s2.97.38,4.23,1.05c.38.2.74.43,1.08.68.39.29.76.61,1.1.95,1.12,1.14,1.95,2.59,2.33,4.2.09.38.16.76.2,1.15.03.31.05.63.05.95,0,.02,0,.05,0,.07h0c0,.07,0,.14,0,.21h0c-.01.42-.05.83-.12,1.23h0c-.07.42-.17.84-.3,1.24-.22.69-.53,1.34-.9,1.95-.2.33-.43.65-.68.95-.26.32-.54.62-.84.9-1.29,1.21-2.93,2.04-4.76,2.32-.12.02-.24.03-.36.05-.27.03-.53.05-.81.05-.07,0-.14,0-.21,0s-.14,0-.21,0c-.27,0-.54-.03-.81-.05-.12-.01-.24-.03-.36-.05-1.83-.28-3.47-1.11-4.76-2.32-.3-.28-.58-.58-.84-.9-.25-.3-.47-.62-.68-.95-.37-.61-.68-1.26-.9-1.95-.13-.4-.23-.81-.3-1.24-.07-.4-.11-.81-.12-1.23,0-.07,0-.14,0-.21,0-.02,0-.05,0-.07,0-.32.02-.64.05-.95.04-.39.11-.78.2-1.15.39-1.61,1.21-3.05,2.33-4.2.34-.35.71-.66,1.1-.95Zm-10.09-7.96c4,0,7.39,2.62,8.56,6.23-.4.31-.79.64-1.15,1-1.04,1.04-1.85,2.24-2.42,3.59-.22.53-.41,1.07-.55,1.62-.09.37-.17.75-.22,1.13-.06.38-.09.77-.11,1.16,0,.16-.01.32-.01.48,0,.57.04,1.14.13,1.7-1.26.67-2.7,1.05-4.23,1.05-2.43,0-4.64-.97-6.26-2.54-.29-.28-.57-.59-.82-.91-.24-.3-.46-.63-.66-.96-.8-1.34-1.25-2.91-1.25-4.58,0-4.96,4.02-8.98,8.98-8.98Zm-2.02,35.09v6.54h-9.85c-1.79,0-3.24-1.45-3.24-3.24v-9.69c0-5.12,2.68-9.62,6.72-12.16.13.15.27.29.41.43,1.04,1.04,2.24,1.85,3.59,2.42,1.39.59,2.87.89,4.39.89s3-.3,4.4-.89c.14-.06.29-.12.43-.19.05.14.11.28.17.42.21.49.45.96.72,1.41-1.03.65-1.98,1.41-2.85,2.29-1.53,1.53-2.73,3.31-3.57,5.29-.87,2.06-1.31,4.24-1.31,6.49Zm32.52,9.69c0,1.79-1.45,3.24-3.24,3.24h-23.74c-1.79,0-3.24-1.45-3.24-3.24v-9.69c0-5.16,2.72-9.69,6.81-12.22.1.11.21.22.31.33,1.04,1.04,2.24,1.85,3.59,2.42.82.35,1.67.59,2.53.74.38.06.76.11,1.15.13.09,0,.18,0,.27.01.15,0,.3,0,.45,0s.3,0,.45,0c.09,0,.18,0,.27-.01.39-.02.77-.07,1.15-.13.87-.14,1.72-.39,2.53-.74,1.34-.57,2.55-1.38,3.59-2.42.11-.11.21-.22.31-.33,4.09,2.53,6.81,7.06,6.81,12.22v9.69Zm12.15-3.15h-9.85v-6.54c0-2.25-.44-4.43-1.31-6.49-.84-1.98-2.04-3.77-3.57-5.29-.87-.87-1.82-1.64-2.85-2.29.27-.45.51-.92.72-1.41.06-.14.11-.28.17-.42.14.07.28.13.43.19,1.39.59,2.87.89,4.4.89s3-.3,4.39-.89c1.35-.57,2.55-1.38,3.59-2.42.14-.14.28-.28.41-.43,4.04,2.54,6.72,7.04,6.72,12.16v9.69c0,1.79-1.45,3.24-3.24,3.24Z"/>
        <polygon class="cls-1" points="53.32 50.04 53.32 50.04 53.32 50.04 53.32 50.04"/>
      </g>
      <path class="cls-1" d="m100.87,29.2h-9.4c-8-12.63-22.1-21.02-38.16-21.02S23.16,16.57,15.16,29.2c-1.32,2.08-2.47,4.27-3.43,6.55-2.29,5.4-3.55,11.34-3.55,17.57s1.26,12.18,3.55,17.58H2.97c-1.92-5.5-2.97-11.42-2.97-17.58s1.04-12.07,2.97-17.57c.79-2.25,1.72-4.44,2.79-6.55C14.56,11.87,32.55,0,53.32,0s38.76,11.87,47.56,29.2Z"/>
      <path class="cls-1" d="m106.63,53.32c0,6.16-1.04,12.08-2.97,17.58l-2.79,6.54c-1.58,3.13-3.47,6.07-5.62,8.81-9.76,12.42-24.92,20.4-41.94,20.4s-32.18-7.97-41.94-20.4c-2.15-2.73-4.04-5.68-5.62-8.81h9.39c8,12.63,22.1,21.03,38.16,21.03s30.16-8.4,38.16-21.03c.32-.51.63-1.01.92-1.53.93-1.61,1.77-3.28,2.51-5.01,2.28-5.4,3.55-11.35,3.55-17.58s-1.26-12.17-3.55-17.57h8.76c1.92,5.5,2.97,11.42,2.97,17.57Z"/>
    </g>
  </g>
</svg>